<svg width="16" height="18" viewBox="0 0 16 18" fill="none" xmlns="http://www.w3.org/2000/svg">
<path d="M3.56005 0.407986C3.28765 0.236239 2.97416 0.140715 2.65226 0.131373C2.33037 0.122031 2.01187 0.199215 1.72997 0.354875C1.44806 0.510536 1.21308 0.738974 1.04952 1.01637C0.885953 1.29377 0.799804 1.60996 0.800049 1.93199V16.068C0.799804 16.39 0.885953 16.7062 1.04952 16.9836C1.21308 17.261 1.44806 17.4894 1.72997 17.6451C2.01187 17.8008 2.33037 17.8779 2.65226 17.8686C2.97416 17.8593 3.28765 17.7637 3.56005 17.592L14.7728 10.5228C15.0302 10.3606 15.2422 10.1359 15.3891 9.86961C15.5361 9.60332 15.6131 9.30413 15.6131 8.99999C15.6131 8.69584 15.5361 8.39666 15.3891 8.13036C15.2422 7.86407 15.0302 7.63935 14.7728 7.47719L3.56005 0.409187V0.407986Z" fill="white"/>
</svg>
