<svg width="28" height="28" viewBox="0 0 28 28" fill="none" xmlns="http://www.w3.org/2000/svg">
<path d="M14 7.875C13.7679 7.875 13.5454 7.78281 13.3813 7.61872C13.2172 7.45462 13.125 7.23206 13.125 7C13.125 6.76794 13.2172 6.54538 13.3813 6.38128C13.5454 6.21719 13.7679 6.125 14 6.125C14.2321 6.125 14.4546 6.21719 14.6187 6.38128C14.7828 6.54538 14.875 6.76794 14.875 7C14.875 7.23206 14.7828 7.45462 14.6187 7.61872C14.4546 7.78281 14.2321 7.875 14 7.875ZM14 14.875C13.7679 14.875 13.5454 14.7828 13.3813 14.6187C13.2172 14.4546 13.125 14.2321 13.125 14C13.125 13.7679 13.2172 13.5454 13.3813 13.3813C13.5454 13.2172 13.7679 13.125 14 13.125C14.2321 13.125 14.4546 13.2172 14.6187 13.3813C14.7828 13.5454 14.875 13.7679 14.875 14C14.875 14.2321 14.7828 14.4546 14.6187 14.6187C14.4546 14.7828 14.2321 14.875 14 14.875ZM14 21.875C13.7679 21.875 13.5454 21.7828 13.3813 21.6187C13.2172 21.4546 13.125 21.2321 13.125 21C13.125 20.7679 13.2172 20.5454 13.3813 20.3813C13.5454 20.2172 13.7679 20.125 14 20.125C14.2321 20.125 14.4546 20.2172 14.6187 20.3813C14.7828 20.5454 14.875 20.7679 14.875 21C14.875 21.2321 14.7828 21.4546 14.6187 21.6187C14.4546 21.7828 14.2321 21.875 14 21.875Z" stroke="#C2C2C2" stroke-width="1.5" stroke-linecap="round" stroke-linejoin="round"/>
</svg>
